<svg width="295" height="156" viewBox="0 0 295 156" fill="none" xmlns="http://www.w3.org/2000/svg">
<path d="M227.023 6.30891C230.316 -7.83253 272.136 -13.2208 292.634 -14.1473L388.338 117.011L-5.61768 275.939C23.587 262.032 79.4022 228.159 69.0262 203.928C56.0561 173.639 53.619 160.517 65.9852 150.097C78.3514 139.676 85.5295 145.4 110 128.5C134.471 111.6 133.027 74.912 150.358 64.4672C167.69 54.0224 191.407 55.3646 205.5 48C219.593 40.6353 222.907 23.9857 227.023 6.30891Z" fill="white" fill-opacity="0.03"/>
<path d="M249.023 15.3089C252.316 1.16747 294.136 -4.2208 314.634 -5.14727L410.338 126.011L16.3823 284.939C45.587 271.032 101.402 237.159 91.0262 212.928C78.0561 182.639 75.619 169.517 87.9852 159.097C100.351 148.676 107.529 154.4 132 137.5C156.471 120.6 155.027 83.912 172.358 73.4672C189.69 63.0224 213.407 64.3646 227.5 57C241.593 49.6353 244.907 32.9857 249.023 15.3089Z" fill="white" fill-opacity="0.06"/>
</svg>
